<svg width="30" height="6" viewBox="0 0 30 6" fill="none" xmlns="http://www.w3.org/2000/svg">
<path d="M12.1734 2.28423L12.1743 2.28399L26.5794 2.17203L26.5853 2.17152C26.6766 2.1726 26.7985 2.16928 26.9519 2.16189L27.5085 2.12656L27.5175 2.12626C27.9771 2.10499 28.3836 2.16507 28.6645 2.37867C28.9498 2.59572 29.122 3.00797 29.2364 3.50406C29.2971 3.76673 29.323 4.00984 29.2851 4.21051C29.2654 4.31448 29.226 4.4212 29.1519 4.512C29.0785 4.60188 28.9826 4.66042 28.8753 4.69107L28.8767 4.69272C28.8737 4.69369 28.8702 4.6933 28.867 4.69421C28.8648 4.6948 28.8629 4.69629 28.8607 4.69686L28.8602 4.69496C28.8198 4.70593 28.7765 4.71374 28.7459 4.71731C28.7035 4.72223 28.6514 4.72674 28.5911 4.73092C28.4697 4.73934 28.3042 4.74666 28.097 4.75422C27.6819 4.76936 27.0882 4.78379 26.318 4.79655C25.5474 4.80931 24.5981 4.82107 23.4703 4.83155L19.5507 4.85901C13.6181 4.90417 9.79996 4.88478 8.1068 4.80088C6.42353 4.72963 5.15075 4.5873 4.30485 4.36447C3.45412 4.14037 2.63371 3.75108 1.84372 3.20187L1.84348 3.20092C1.4567 2.93705 1.14693 2.69449 0.922768 2.47182C0.706317 2.25679 0.533926 2.02728 0.482721 1.78844C0.448108 1.62663 0.429513 1.46924 0.446432 1.33393C0.463261 1.19937 0.529971 1.00994 0.734289 0.932129L0.74988 0.9261L0.765958 0.921963C0.880396 0.892539 1.00266 0.900254 1.11317 0.919336C1.22763 0.93912 1.3552 0.976115 1.49335 1.0252C3.95866 1.88403 7.51212 2.30875 12.1734 2.28423Z" fill="white" stroke="white" stroke-width="0.6"/>
</svg>
