<svg width="32" height="32" viewBox="0 0 32 32" fill="none" xmlns="http://www.w3.org/2000/svg">
<path d="M8.00016 2.66675C7.29292 2.66675 6.61464 2.9477 6.11454 3.4478C5.61445 3.94789 5.3335 4.62617 5.3335 5.33341C5.3335 6.04066 5.61445 6.71894 6.11454 7.21903C6.61464 7.71913 7.29292 8.00008 8.00016 8.00008C8.70741 8.00008 9.38568 7.71913 9.88578 7.21903C10.3859 6.71894 10.6668 6.04066 10.6668 5.33341C10.6668 4.62617 10.3859 3.94789 9.88578 3.4478C9.38568 2.9477 8.70741 2.66675 8.00016 2.66675ZM22.6668 10.6667C21.9596 10.6667 21.2813 10.9477 20.7812 11.4478C20.2811 11.9479 20.0002 12.6262 20.0002 13.3334C20.0002 14.0407 20.2811 14.7189 20.7812 15.219C21.2813 15.7191 21.9596 16.0001 22.6668 16.0001C23.3741 16.0001 24.0524 15.7191 24.5524 15.219C25.0525 14.7189 25.3335 14.0407 25.3335 13.3334C25.3335 12.6262 25.0525 11.9479 24.5524 11.4478C24.0524 10.9477 23.3741 10.6667 22.6668 10.6667Z" fill="#DE0043"/>
<path d="M25.3332 17.3333H16.7198L11.7865 9.93325C11.5332 9.55992 11.1198 9.33325 10.6798 9.33325H3.99984C3.2665 9.33325 2.6665 9.93325 2.6665 10.6666V19.9999H5.33317V29.3333H10.6665V13.0666L14.8932 19.3999C15.1465 19.7733 15.5598 19.9999 15.9998 19.9999H18.6665V29.3333H21.3332V25.3333H23.9998V29.3333H26.6665V24.3199L26.8132 24.5999L29.1998 23.4133L26.5332 18.0799C26.4224 17.86 26.2528 17.6751 26.0434 17.5457C25.8339 17.4162 25.5927 17.3473 25.3465 17.3466L25.3332 17.3333Z" fill="#DE0043"/>
</svg>
