<?xml version="1.0" encoding="UTF-8"?>
<svg id="Laag_2" data-name="Laag 2" xmlns="http://www.w3.org/2000/svg" viewBox="0 0 34.74 28.48">
  <defs>
    <style>
      .cls-1 {
        fill: #5B7C85;
      }
    </style>
  </defs>
  <g id="Laag_1-2" data-name="Laag 1">
    <path class="cls-1" d="M0,28.48c3.8-3.93,7.21-8.27,10.02-12.94,2.93-4.47,5.33-9.5,5.87-14.85,0,0,1.49.18,1.49.18-.82,5.65-1.51,11.37-1.75,17.05.03,2.5-.38,5.66.8,7.86.11.06.01.06.2.02.05,0,.26-.14.21-.11.45-1.82-.71-4.03-1.44-5.77-1.15-2.11-2.55-5.09-4.93-5.85-1.27-.15-2.58.18-2.88,1.11-.62,2.71,1.59,4.35,4.22,3.05,3.74-1.83,6.36-5.38,8.81-8.71.24-.34.71-.42,1.05-.18.27.19.38.53.28.84-.22.76-.52,2.03-.28,2.65,1.26-.33,2.81-1.88,3.87-2.94.47-.52,1.4-.07,1.29.61-.93,6.14.15,8.58,5.48,3.56.98-1.07,2.12-2.18,2.43-3.65-.39,2.66-4.1,6.92-6.83,7.32-3.22.02-2.89-5.28-2.59-7.43,0,0,1.29.66,1.29.66-1.45,1.28-2.74,2.91-4.78,3.34-2.4.08-1.78-3.14-1.31-4.58,0,0,1.33.66,1.33.66-2.72,3.69-8.99,12.32-14.29,9.03-2.14-1.6-2.25-5.78.62-6.62,2.76-.94,4.8.58,6.29,2.66,1.54,2,5.93,9.72,3.06,11.58-6.5,3.38-1.9-23.31-1.62-26.39.06-.41.44-.69.85-.63.4.06.68.42.64.82-.28,2.83-1.06,5.57-2.14,8.16-3.19,7.75-8.91,14.15-15.25,19.49h0Z"/>
  </g>
</svg>