<svg width="53" height="91" viewBox="0 0 53 91" fill="none" xmlns="http://www.w3.org/2000/svg">
<path fill-rule="evenodd" clip-rule="evenodd" d="M4.89139 26.1287V65.0307C4.89139 76.9895 14.573 86.6762 26.5219 86.6762C38.469 86.6762 48.1506 76.9865 48.1506 65.0307V26.1287C48.1506 14.1699 38.469 4.48318 26.5219 4.48318C14.5747 4.48318 4.89139 14.173 4.89139 26.1287ZM0.566406 26.1287C0.566406 11.7851 12.1834 0.158203 26.5219 0.158203C40.8556 0.158203 52.4773 11.7782 52.4773 26.1287V65.0307C52.4773 79.3743 40.859 91.0012 26.5219 91.0012C12.1864 91.0012 0.566406 79.3812 0.566406 65.0307V26.1287Z" fill="white"/>
<path fill-rule="evenodd" clip-rule="evenodd" d="M24.3555 15.2972V23.9489C24.3555 25.1429 25.3231 26.1122 26.5189 26.1122C27.7129 26.1122 28.6806 25.1429 28.6806 23.9489V15.2972C28.6806 14.1031 27.7129 13.1338 26.5189 13.1338C25.3231 13.1338 24.3555 14.1031 24.3555 15.2972Z" fill="white"/>
</svg>
